<svg width="64" height="76" viewBox="0 0 64 76" fill="none" xmlns="http://www.w3.org/2000/svg">
<g clip-path="url(#clip0_23_532)">
<path d="M43.6813 76C42.6003 73.3689 40.6943 72.5224 37.8069 72.5647C26.7692 72.7269 15.7244 72.6493 4.67963 72.6634C3.1648 72.6634 1.64996 72.6634 0 71.8663C0.917435 71.556 1.82065 71.1116 2.76653 70.9634C12.6094 69.475 22.4594 68.0572 32.3023 66.5829C35.6946 66.075 38.6105 64.897 39.6489 60.721C33.9024 61.2007 28.5045 61.5393 23.1492 62.1953C22.0825 62.3293 21.165 63.6766 20.34 63.5638C17.7798 63.0135 15.2408 62.1177 12.6592 61.9766C7.06923 61.6803 2.76653 58.1745 1.50772 51.7977C2.68119 52.7288 3.4066 53.3213 4.15335 53.8927C6.49317 55.6844 9.03211 56.2911 11.7844 54.9579C14.4585 53.667 15.8098 51.706 15.7529 48.5316C15.5964 39.827 15.632 31.1153 15.7813 22.4106C15.8311 19.6172 14.8354 18.6085 12.0689 18.7566C9.16013 18.9189 6.23003 18.7919 3.31415 18.7919C3.26436 18.3969 3.21458 18.0089 3.17191 17.6139C5.58284 17.2259 8.07201 17.0848 10.3763 16.3653C12.4316 15.7234 16.3858 17.1483 15.6106 12.6337C15.127 9.82625 10.6323 7.16688 7.75197 8.11917C5.69663 8.79636 3.85465 10.1014 1.94155 11.1101C2.24736 6.24986 6.86298 1.86931 11.884 1.73529C14.8781 1.65064 18.1709 2.52534 19.4084 0C22.4025 0.656024 24.849 1.61537 27.3026 1.65064C38.2265 1.80583 49.1504 1.68591 60.0742 1.67886C61.3473 1.67886 62.6203 1.78467 63.8933 1.8411C63.9289 2.15148 63.9644 2.46891 64 2.77928C61.4326 3.20958 58.8652 3.6822 56.2907 4.07017C47.9698 5.33284 39.6346 6.49675 31.335 7.83701C28.1133 8.35901 25.2046 9.52998 24.5716 13.6918C30.2754 13.191 35.6733 12.8313 41.0286 12.1541C42.0882 12.02 42.9914 10.6516 44.1293 9.72044C45.8078 13.064 48.9512 12.4151 51.8671 12.4786C57.2081 12.5914 61.966 17.0072 62.1367 21.9733C61.9091 21.9451 61.6033 21.9944 61.4753 21.8675C58.7372 19.1446 55.672 17.8255 51.8529 19.5961C47.9484 21.4019 48.1262 24.8231 48.1618 28.3219C48.2471 36.2012 48.304 44.0947 48.1262 51.974C48.0622 54.8379 49.1646 55.7338 51.86 55.6139C54.7616 55.4799 57.6704 55.5857 60.5721 55.5857C60.6076 55.9736 60.6432 56.3616 60.6716 56.7496C57.4286 57.321 54.1856 57.8782 50.9426 58.4637C47.9769 58.9998 47.3084 60.6434 49.0152 63.1194C51.3977 66.5617 55.8142 67.4011 59.3133 65.0381C60.2449 64.4102 61.0984 63.6555 62.1651 62.816C61.774 68.4734 57.1584 72.5435 51.4902 72.6282C48.6312 72.6705 45.2601 71.7676 44.3996 75.9929H43.6884L43.6813 76ZM39.5137 55.2964C39.5137 45.0752 39.5066 35.3477 39.5137 25.6202C39.5137 21.7334 37.3304 19.2998 33.3548 19.0035C31.4702 18.8624 29.5642 19.0035 27.6795 18.8766C25.4037 18.7284 24.5289 19.6525 24.5432 21.938C24.6143 31.0871 24.5787 40.2361 24.5361 49.3922C24.5218 52.8134 26.5203 54.7745 29.5642 55.2048C32.665 55.6421 35.8724 55.3035 39.5066 55.3035L39.5137 55.2964Z" fill="#131311"/>
</g>
<defs>
<clipPath id="clip0_23_532">
<rect width="64" height="76" fill="white"/>
</clipPath>
</defs>
</svg>
